<mxfile host="Electron" agent="Mozilla/5.0 (X11; Linux x86_64) AppleWebKit/537.36 (KHTML, like Gecko) draw.io/26.1.1 Chrome/132.0.6834.210 Electron/34.3.3 Safari/537.36" version="26.1.1">
  <diagram name="Page-1" id="aLKy41kNcSVif7WJQoE-">
    <mxGraphModel dx="1405" dy="952" grid="1" gridSize="10" guides="1" tooltips="1" connect="1" arrows="1" fold="1" page="1" pageScale="1" pageWidth="1400" pageHeight="850" math="0" shadow="0">
      <root>
        <mxCell id="0" />
        <mxCell id="1" parent="0" />
        <mxCell id="Kzfv3EJHUvJdrAXewRau-7" value="" style="group" parent="1" vertex="1" connectable="0">
          <mxGeometry x="480" y="20" width="410" height="100" as="geometry" />
        </mxCell>
        <mxCell id="Kzfv3EJHUvJdrAXewRau-1" value="" style="rounded=0;whiteSpace=wrap;html=1;fillColor=#ffe6cc;strokeColor=#d79b00;" parent="Kzfv3EJHUvJdrAXewRau-7" vertex="1">
          <mxGeometry y="30" width="410" height="70" as="geometry" />
        </mxCell>
        <mxCell id="Kzfv3EJHUvJdrAXewRau-2" value="ADD PROJECT" style="rounded=0;whiteSpace=wrap;html=1;" parent="Kzfv3EJHUvJdrAXewRau-7" vertex="1">
          <mxGeometry x="20" y="45" width="110" height="40" as="geometry" />
        </mxCell>
        <mxCell id="Kzfv3EJHUvJdrAXewRau-3" value="EDIT PROJECT" style="rounded=0;whiteSpace=wrap;html=1;" parent="Kzfv3EJHUvJdrAXewRau-7" vertex="1">
          <mxGeometry x="150" y="45" width="110" height="40" as="geometry" />
        </mxCell>
        <mxCell id="Kzfv3EJHUvJdrAXewRau-4" value="DELETE PROJECT" style="rounded=0;whiteSpace=wrap;html=1;" parent="Kzfv3EJHUvJdrAXewRau-7" vertex="1">
          <mxGeometry x="280" y="45" width="110" height="40" as="geometry" />
        </mxCell>
        <mxCell id="Kzfv3EJHUvJdrAXewRau-5" value="ADD, EDIT DELETE PROJECTS" style="text;html=1;align=center;verticalAlign=middle;whiteSpace=wrap;rounded=0;" parent="Kzfv3EJHUvJdrAXewRau-7" vertex="1">
          <mxGeometry width="410" height="30" as="geometry" />
        </mxCell>
        <mxCell id="Kzfv3EJHUvJdrAXewRau-8" value="" style="group" parent="1" vertex="1" connectable="0">
          <mxGeometry x="480" y="130" width="410" height="100" as="geometry" />
        </mxCell>
        <mxCell id="Kzfv3EJHUvJdrAXewRau-9" value="" style="rounded=0;whiteSpace=wrap;html=1;fillColor=#ffe6cc;strokeColor=#d79b00;" parent="Kzfv3EJHUvJdrAXewRau-8" vertex="1">
          <mxGeometry y="30" width="410" height="70" as="geometry" />
        </mxCell>
        <mxCell id="Kzfv3EJHUvJdrAXewRau-10" value="ADD LOTS" style="rounded=0;whiteSpace=wrap;html=1;" parent="Kzfv3EJHUvJdrAXewRau-8" vertex="1">
          <mxGeometry x="20" y="45" width="110" height="40" as="geometry" />
        </mxCell>
        <mxCell id="Kzfv3EJHUvJdrAXewRau-11" value="EDIT LOTS" style="rounded=0;whiteSpace=wrap;html=1;" parent="Kzfv3EJHUvJdrAXewRau-8" vertex="1">
          <mxGeometry x="150" y="45" width="110" height="40" as="geometry" />
        </mxCell>
        <mxCell id="Kzfv3EJHUvJdrAXewRau-12" value="DELETE LOTS" style="rounded=0;whiteSpace=wrap;html=1;" parent="Kzfv3EJHUvJdrAXewRau-8" vertex="1">
          <mxGeometry x="280" y="45" width="110" height="40" as="geometry" />
        </mxCell>
        <mxCell id="Kzfv3EJHUvJdrAXewRau-13" value="ADD, EDIT DELETE LOTS" style="text;html=1;align=center;verticalAlign=middle;whiteSpace=wrap;rounded=0;" parent="Kzfv3EJHUvJdrAXewRau-8" vertex="1">
          <mxGeometry width="410" height="30" as="geometry" />
        </mxCell>
        <mxCell id="Kzfv3EJHUvJdrAXewRau-14" value="" style="group" parent="1" vertex="1" connectable="0">
          <mxGeometry x="480" y="240" width="410" height="100" as="geometry" />
        </mxCell>
        <mxCell id="Kzfv3EJHUvJdrAXewRau-15" value="" style="rounded=0;whiteSpace=wrap;html=1;fillColor=#ffe6cc;strokeColor=#d79b00;" parent="Kzfv3EJHUvJdrAXewRau-14" vertex="1">
          <mxGeometry y="30" width="410" height="70" as="geometry" />
        </mxCell>
        <mxCell id="Kzfv3EJHUvJdrAXewRau-16" value="ADD ACTIVITIES" style="rounded=0;whiteSpace=wrap;html=1;" parent="Kzfv3EJHUvJdrAXewRau-14" vertex="1">
          <mxGeometry x="20" y="45" width="110" height="40" as="geometry" />
        </mxCell>
        <mxCell id="Kzfv3EJHUvJdrAXewRau-17" value="EDIT ACTIVITIES" style="rounded=0;whiteSpace=wrap;html=1;" parent="Kzfv3EJHUvJdrAXewRau-14" vertex="1">
          <mxGeometry x="150" y="45" width="110" height="40" as="geometry" />
        </mxCell>
        <mxCell id="Kzfv3EJHUvJdrAXewRau-18" value="DELETE ACTIVITIES" style="rounded=0;whiteSpace=wrap;html=1;" parent="Kzfv3EJHUvJdrAXewRau-14" vertex="1">
          <mxGeometry x="280" y="45" width="110" height="40" as="geometry" />
        </mxCell>
        <mxCell id="Kzfv3EJHUvJdrAXewRau-19" value="ADD, EDIT DELETE ACTIVITIES" style="text;html=1;align=center;verticalAlign=middle;whiteSpace=wrap;rounded=0;" parent="Kzfv3EJHUvJdrAXewRau-14" vertex="1">
          <mxGeometry width="410" height="30" as="geometry" />
        </mxCell>
        <mxCell id="Kzfv3EJHUvJdrAXewRau-106" value="" style="group" parent="1" vertex="1" connectable="0">
          <mxGeometry x="930" y="20" width="410" height="100" as="geometry" />
        </mxCell>
        <mxCell id="Kzfv3EJHUvJdrAXewRau-107" value="" style="rounded=0;whiteSpace=wrap;html=1;fillColor=#ffe6cc;strokeColor=#d79b00;" parent="Kzfv3EJHUvJdrAXewRau-106" vertex="1">
          <mxGeometry y="30" width="410" height="70" as="geometry" />
        </mxCell>
        <mxCell id="Kzfv3EJHUvJdrAXewRau-109" value="CONFIRMER AJOUT" style="rounded=0;whiteSpace=wrap;html=1;" parent="Kzfv3EJHUvJdrAXewRau-106" vertex="1">
          <mxGeometry x="80" y="45" width="250" height="40" as="geometry" />
        </mxCell>
        <mxCell id="Kzfv3EJHUvJdrAXewRau-111" value="BOUTON POUR CONFIRMER L&#39;AJOUT" style="text;html=1;align=center;verticalAlign=middle;whiteSpace=wrap;rounded=0;" parent="Kzfv3EJHUvJdrAXewRau-106" vertex="1">
          <mxGeometry width="410" height="30" as="geometry" />
        </mxCell>
        <mxCell id="Kzfv3EJHUvJdrAXewRau-117" value="" style="group" parent="1" vertex="1" connectable="0">
          <mxGeometry x="930" y="130" width="410" height="100" as="geometry" />
        </mxCell>
        <mxCell id="Kzfv3EJHUvJdrAXewRau-118" value="" style="rounded=0;whiteSpace=wrap;html=1;fillColor=#ffe6cc;strokeColor=#d79b00;" parent="Kzfv3EJHUvJdrAXewRau-117" vertex="1">
          <mxGeometry y="30" width="410" height="70" as="geometry" />
        </mxCell>
        <mxCell id="Kzfv3EJHUvJdrAXewRau-119" value="CONFIRMER MODIFICATIONS" style="rounded=0;whiteSpace=wrap;html=1;" parent="Kzfv3EJHUvJdrAXewRau-117" vertex="1">
          <mxGeometry x="80" y="45" width="250" height="40" as="geometry" />
        </mxCell>
        <mxCell id="Kzfv3EJHUvJdrAXewRau-120" value="BOUTON POUR CONFIRMER LES MODIFICATIONS" style="text;html=1;align=center;verticalAlign=middle;whiteSpace=wrap;rounded=0;" parent="Kzfv3EJHUvJdrAXewRau-117" vertex="1">
          <mxGeometry width="410" height="30" as="geometry" />
        </mxCell>
        <mxCell id="Kzfv3EJHUvJdrAXewRau-121" value="" style="group" parent="1" vertex="1" connectable="0">
          <mxGeometry x="930" y="240" width="410" height="100" as="geometry" />
        </mxCell>
        <mxCell id="Kzfv3EJHUvJdrAXewRau-122" value="" style="rounded=0;whiteSpace=wrap;html=1;fillColor=#ffe6cc;strokeColor=#d79b00;" parent="Kzfv3EJHUvJdrAXewRau-121" vertex="1">
          <mxGeometry y="30" width="410" height="70" as="geometry" />
        </mxCell>
        <mxCell id="Kzfv3EJHUvJdrAXewRau-123" value="CONFIRMER SUPPRESSION" style="rounded=0;whiteSpace=wrap;html=1;" parent="Kzfv3EJHUvJdrAXewRau-121" vertex="1">
          <mxGeometry x="80" y="45" width="250" height="40" as="geometry" />
        </mxCell>
        <mxCell id="Kzfv3EJHUvJdrAXewRau-124" value="DEMANDE CONFIRMATION SUPPRESSION" style="text;html=1;align=center;verticalAlign=middle;whiteSpace=wrap;rounded=0;" parent="Kzfv3EJHUvJdrAXewRau-121" vertex="1">
          <mxGeometry width="410" height="30" as="geometry" />
        </mxCell>
        <mxCell id="Kzfv3EJHUvJdrAXewRau-135" value="" style="rounded=0;whiteSpace=wrap;html=1;fillColor=#dae8fc;strokeColor=#6c8ebf;" parent="1" vertex="1">
          <mxGeometry x="20" y="50" width="410" height="240" as="geometry" />
        </mxCell>
        <mxCell id="Kzfv3EJHUvJdrAXewRau-136" value="BOUTON" style="rounded=0;whiteSpace=wrap;html=1;" parent="1" vertex="1">
          <mxGeometry x="50" y="80" width="350" height="30" as="geometry" />
        </mxCell>
        <mxCell id="Kzfv3EJHUvJdrAXewRau-137" value="BOUTON AVEC ICONE" style="rounded=1;whiteSpace=wrap;html=1;" parent="1" vertex="1">
          <mxGeometry x="50" y="130" width="350" height="30" as="geometry" />
        </mxCell>
        <mxCell id="Kzfv3EJHUvJdrAXewRau-151" value="" style="rhombus;whiteSpace=wrap;html=1;" parent="1" vertex="1">
          <mxGeometry x="50" y="180" width="30" height="30" as="geometry" />
        </mxCell>
        <mxCell id="Kzfv3EJHUvJdrAXewRau-152" value="BOUTON AVEC MENU DEROULANT" style="rounded=0;whiteSpace=wrap;html=1;" parent="1" vertex="1">
          <mxGeometry x="90" y="180" width="310" height="30" as="geometry" />
        </mxCell>
        <mxCell id="Kzfv3EJHUvJdrAXewRau-153" value="CHAMP A COMPLETER" style="shape=parallelogram;perimeter=parallelogramPerimeter;whiteSpace=wrap;html=1;fixedSize=1;" parent="1" vertex="1">
          <mxGeometry x="50" y="230" width="350" height="30" as="geometry" />
        </mxCell>
        <mxCell id="Kzfv3EJHUvJdrAXewRau-154" value="LEGENDE" style="text;html=1;align=center;verticalAlign=middle;whiteSpace=wrap;rounded=0;" parent="1" vertex="1">
          <mxGeometry x="20" y="20" width="410" height="30" as="geometry" />
        </mxCell>
      </root>
    </mxGraphModel>
  </diagram>
</mxfile>
